<svg viewBox="0 0 51 19" fill="none" xmlns="http://www.w3.org/2000/svg">
<path d="M50.1864 17.9826H50.3956C50.4866 17.9826 50.5875 18.018 50.5875 18.1388C50.5875 18.2756 50.4624 18.288 50.3476 18.288H50.1864V18.3466H50.3834L50.6116 18.709H50.6836L50.4573 18.3485C50.5654 18.3305 50.6529 18.2685 50.6529 18.1407C50.6529 17.9984 50.5773 17.9238 50.4058 17.9238H50.1211V18.709H50.1864V17.9826Z" fill="white"/>
<path d="M50.3542 17.6523C50.709 17.6523 50.9954 17.9488 50.9954 18.3167C50.9954 18.6843 50.709 18.9808 50.3542 18.9808C49.9993 18.9808 49.7129 18.6843 49.7129 18.3167C49.7129 17.9488 49.9993 17.6523 50.3542 17.6523L50.3558 17.7111C50.025 17.7111 49.7782 17.9738 49.7782 18.3167C49.7782 18.6522 50.0284 18.9223 50.3558 18.9223C50.6833 18.9223 50.9303 18.6505 50.9303 18.3147C50.9303 17.9755 50.6849 17.7111 50.3558 17.7111L50.3542 17.6523Z" fill="white"/>
<path d="M43.9778 18.335H40.9551V0.0292969H43.9778V7.19985L45.529 0.0292969H48.7613L46.7223 7.37358L48.8701 18.335H45.7279L44.6287 10.4047L43.9778 11.7896V18.335Z" fill="white"/>
<path d="M34.653 15.254H31.7182V10.4403H34.0329V7.36643H31.7182V2.88624H34.653V0.0292969H28.5273V18.335H34.653V15.254Z" fill="white"/>
<path d="M40.691 15.254H37.8852V10.4403H40.0981V7.36643H37.8852V2.88624H40.691V0.0292969H34.834V18.335H40.691V15.254Z" fill="white"/>
<path d="M16.1875 0.0292969L18.3502 18.335H21.6233L22.448 6.56543L23.5205 18.335H26.3366L28.3283 0.0292969H25.8363L25.221 10.3142L24.1691 0.0292969H20.9366L20.0939 10.1524L19.0599 0.0292969H16.1875Z" fill="white"/>
<path d="M13.1945 14.4253C13.1945 15.1226 12.8903 15.6878 12.5151 15.6878H11.9884V2.88624L12.5151 2.88646C12.8903 2.88646 13.1945 3.45147 13.1945 4.149V14.4253ZM13.867 0.0292969H8.86035V11.5937L8.85742 11.5638V18.335L13.867 18.3348C15.1491 18.3348 16.1884 16.7801 16.1884 14.8625V3.50179C16.1884 1.584 15.1491 0.0292969 13.867 0.0292969Z" fill="white"/>
<path d="M3.46741 11.7189L4.23367 3.90044L4.99992 11.7189H3.46741ZM6.71018 0.0292969H2.13609L0.0175781 18.3465H2.75161L3.06963 14.2518H4.97878L5.297 18.3465H8.68068L6.71018 0.0292969Z" fill="white"/>
</svg>