<?xml version="1.0" encoding="UTF-8" standalone="no"?>
<!DOCTYPE svg PUBLIC "-//W3C//DTD SVG 1.1//EN" "http://www.w3.org/Graphics/SVG/1.1/DTD/svg11.dtd">
<svg width="100%" height="100%" viewBox="0 0 1015 365" version="1.1" xmlns="http://www.w3.org/2000/svg" xmlns:xlink="http://www.w3.org/1999/xlink" xml:space="preserve" xmlns:serif="http://www.serif.com/" style="fill-rule:evenodd;clip-rule:evenodd;stroke-linejoin:round;stroke-miterlimit:1.41421;">
    <g id="Layer-1" serif:id="Layer 1" transform="matrix(4.16667,0,0,4.16667,-40,-40)">
        <g transform="matrix(1,0,0,1,249.308,95.5884)">
            <path d="M0,-3.078L0.999,-3.078C1.434,-3.078 1.916,-2.915 1.916,-2.358C1.916,-1.727 1.318,-1.67 0.77,-1.67L0,-1.67L0,-1.4L0.941,-1.4L2.031,0.271L2.375,0.271L1.294,-1.391C1.81,-1.474 2.228,-1.76 2.228,-2.349C2.228,-3.005 1.867,-3.349 1.048,-3.349L-0.312,-3.349L-0.312,0.271L0,0.271L0,-3.078Z" style="fill:rgb(11,13,31);fill-rule:nonzero;"/>
        </g>
        <g transform="matrix(1,0,0,1,250.11,97.112)">
            <path d="M0,-6.125C1.695,-6.125 3.063,-4.758 3.063,-3.062C3.063,-1.367 1.695,0 0,0C-1.695,0 -3.063,-1.367 -3.063,-3.062C-3.063,-4.758 -1.695,-6.125 0,-6.125L0.008,-5.854C-1.572,-5.854 -2.751,-4.643 -2.751,-3.062C-2.751,-1.515 -1.556,-0.27 0.008,-0.27C1.572,-0.27 2.752,-1.523 2.752,-3.071C2.752,-4.635 1.58,-5.854 0.008,-5.854L0,-6.125Z" style="fill:rgb(11,13,31);fill-rule:nonzero;"/>
        </g>
        <g transform="matrix(1,0,0,1,219.651,9.7359)">
            <path d="M0,84.399L-14.438,84.399L-14.438,0L0,0L0,33.06L7.409,0L22.848,0L13.109,33.861L23.368,84.399L8.359,84.399L3.109,47.836L0,54.221L0,84.399Z" style="fill:rgb(11,13,31);fill-rule:nonzero;"/>
        </g>
        <g transform="matrix(1,0,0,1,175.12,23.9414)">
            <path d="M0,55.989L-14.018,55.989L-14.018,33.795L-2.962,33.795L-2.962,19.623L-14.018,19.623L-14.018,-1.033L0,-1.033L0,-14.205L-29.259,-14.205L-29.259,70.194L0,70.194L0,55.989Z" style="fill:rgb(11,13,31);fill-rule:nonzero;"/>
        </g>
        <g transform="matrix(1,0,0,1,203.954,23.9414)">
            <path d="M0,55.989L-13.402,55.989L-13.402,33.795L-2.832,33.795L-2.832,19.623L-13.402,19.623L-13.402,-1.033L0,-1.033L0,-14.205L-27.976,-14.205L-27.976,70.194L0,70.194L0,55.989Z" style="fill:rgb(11,13,31);fill-rule:nonzero;"/>
        </g>
        <g transform="matrix(1,0,0,1,86.9117,94.135)">
            <path d="M0,-84.399L10.33,0L25.964,0L29.903,-54.264L35.026,0L48.477,0L57.99,-84.399L46.087,-84.399L43.148,-36.98L38.124,-84.399L22.684,-84.399L18.659,-37.726L13.72,-84.399L0,-84.399Z" style="fill:rgb(11,13,31);fill-rule:nonzero;"/>
        </g>
        <g transform="matrix(1,0,0,1,72.6114,27.7621)">
            <path d="M0,48.347C0,51.562 -1.453,54.168 -3.245,54.168L-5.761,54.168L-5.761,-4.854L-3.245,-4.853C-1.453,-4.853 0,-2.248 0,0.968L0,48.347ZM3.212,-18.026L-20.702,-18.026L-20.702,35.292L-20.716,35.154L-20.716,66.373L3.212,66.372C9.336,66.372 14.3,59.204 14.3,50.363L14.3,-2.016C14.3,-10.858 9.336,-18.026 3.212,-18.026" style="fill:rgb(11,13,31);fill-rule:nonzero;"/>
        </g>
        <g transform="matrix(1,0,0,1,26.1559,40.2926)">
            <path d="M0,23.338L3.66,-12.709L7.32,23.338L0,23.338ZM15.489,-30.557L-6.359,-30.557L-16.478,53.895L-3.419,53.895L-1.9,35.016L7.219,35.016L8.739,53.895L24.901,53.895L15.489,-30.557Z" style="fill:rgb(11,13,31);fill-rule:nonzero;"/>
        </g>
    </g>
</svg>
