<svg viewBox="0 0 69 17" fill="none" xmlns="http://www.w3.org/2000/svg">
<path d="M7.54696 1.58401H9.03659C9.94376 1.45644 10.8702 1.5686 11.7153 1.90829C12.7755 2.51714 13.5445 3.49733 13.8583 4.63977C14.0804 5.23844 14.0804 5.23845 14.6161 5.02641H15.0343V0.286867H1.01353V1.12252H1.58847C1.83832 1.12087 2.08537 1.17267 2.3115 1.27411C2.53762 1.37556 2.73705 1.52407 2.89516 1.70873C3.4309 2.53191 3.52237 3.45488 3.52237 8.25679C3.52237 13.358 3.40477 14.6053 2.89516 15.2414C2.76935 15.4049 2.60647 15.5392 2.41867 15.6342C2.23087 15.7293 2.02301 15.7826 1.81061 15.7902C1.01353 15.9274 1.01353 15.9149 1.01353 16.2517C0.969449 16.3643 0.969449 16.4883 1.01353 16.6009H9.8598C9.91834 16.4907 9.94885 16.3689 9.94885 16.2454C9.94885 16.1219 9.91834 16.0001 9.8598 15.8899C9.64554 15.833 9.42716 15.7914 9.20646 15.7652C8.96769 15.7381 8.73169 15.6922 8.50084 15.628C8.17027 15.3977 7.9084 15.089 7.74111 14.7324C7.57382 14.3759 7.5069 13.9838 7.54696 13.595C7.4163 12.7718 7.35096 11.2627 7.35096 10.0154V9.03008H7.87364C8.52483 9.01106 9.17564 9.07822 9.80753 9.22964C10.1102 9.4082 10.3679 9.64835 10.5622 9.93294C10.7564 10.2175 10.8825 10.5396 10.9313 10.876L11.0489 11.2627H11.846V5.73734H11.1142L10.9966 6.27366C10.9471 6.61774 10.8138 6.94593 10.6073 7.23187C10.4007 7.51781 10.1268 7.75351 9.80753 7.92003C9.49831 8.00787 9.17253 8.02917 8.85365 7.98239H7.35096V6.63536C7.35096 5.23844 7.42936 2.29494 7.48163 1.83346L7.54696 1.58401ZM68.6999 11.4747C68.0823 10.5258 67.1189 9.82836 65.9951 9.51651C65.1335 9.25945 64.3371 8.83477 63.6561 8.26926C63.5029 8.12778 63.3882 7.95266 63.3222 7.75917C63.2561 7.56568 63.2407 7.3597 63.2772 7.15921C63.2782 6.76594 63.4427 6.38912 63.7345 6.11152C63.9323 5.91378 64.1827 5.77104 64.4588 5.69855C64.735 5.62605 65.0266 5.62653 65.3025 5.69993C65.8738 5.85532 66.3903 6.15531 66.7975 6.56811C67.2047 6.9809 67.4873 7.49114 67.6154 8.04475C67.8244 8.60602 67.8506 8.60602 68.2295 8.45635L68.4647 8.36904V5.26339L68.2948 5.18856C67.0084 4.75729 65.6438 4.5791 64.2833 4.66471C63.1117 4.69305 61.9933 5.13783 61.1473 5.91196C60.7636 6.25482 60.463 6.67358 60.2666 7.13895C60.0703 7.60431 59.9828 8.10502 60.0105 8.60602C60.0178 9.37198 60.3363 10.1053 60.899 10.6515C61.5208 11.2352 62.2838 11.6636 63.1204 11.8988C65.1457 12.6596 65.7337 13.146 65.7337 14.0315C65.7424 14.405 65.6178 14.7701 65.3804 15.0671C65.1429 15.364 64.8067 15.575 64.4271 15.6654C63.9708 15.7611 63.4982 15.7611 63.042 15.6654C62.4446 15.4441 61.9112 15.0899 61.4862 14.6321C61.0612 14.1744 60.7568 13.6264 60.5985 13.0337L60.4286 12.6346H60.1934C60.081 12.6426 59.9707 12.6679 59.8667 12.7095H59.736V16.2517H59.9582C60.841 16.532 61.7518 16.7242 62.6761 16.8254H63.9828C64.5495 16.8651 65.1191 16.8145 65.6684 16.6757C66.3658 16.5529 67.0173 16.258 67.5583 15.8204C68.0993 15.3828 68.5109 14.8177 68.7522 14.1812C68.9081 13.8257 68.9881 13.4441 68.9874 13.0587C69.0389 12.5158 68.9397 11.9695 68.6999 11.4747ZM56.3909 5.02641C55.6079 4.71262 54.7642 4.5604 53.9152 4.57974C53.0663 4.59909 52.2312 4.78956 51.4647 5.13867C50.7443 5.47503 50.1058 5.95184 49.5904 6.53834C49.0749 7.12483 48.6941 7.80797 48.4724 8.54365C48.1898 9.34619 48.07 10.1928 48.1196 11.0382C48.1102 11.4981 48.1496 11.9578 48.2372 12.4101C48.4482 13.5224 49.0108 14.5465 49.8494 15.3446C50.6879 16.1428 51.7623 16.677 52.9282 16.8753C53.6874 16.9666 54.4557 16.9666 55.2149 16.8753C56.0028 16.7427 56.7568 16.4676 57.4363 16.0646C57.9984 15.7638 58.4741 15.3354 58.8214 14.8173C58.7991 14.736 58.7598 14.6599 58.7059 14.5934C58.652 14.527 58.5846 14.4716 58.5078 14.4307C58.3586 14.4822 58.2179 14.5536 58.0896 14.6427C57.4397 15.0516 56.6722 15.2565 55.8944 15.2289C55.3781 15.2622 54.8605 15.1855 54.3791 15.0043C53.8978 14.8231 53.4646 14.5419 53.1111 14.1812C52.8377 13.9388 52.612 13.6515 52.4447 13.3331C52.0387 12.5577 51.8199 11.7053 51.8045 10.8386V10.3522H59.0435V10.1027C59.0595 9.8535 59.0595 9.60358 59.0435 9.35437C59.0409 8.47369 58.7941 7.60936 58.3282 6.8492C57.8623 6.08904 57.1939 5.46015 56.3909 5.02641ZM52.7453 9.34189H51.8306V8.60602C52.1311 6.72267 52.8759 5.60015 53.7906 5.60015C54.7053 5.60015 55.0973 6.7102 55.2672 8.74321V9.31695H54.4832L52.7453 9.34189ZM33.9551 4.61482C33.5036 4.59811 33.0547 4.68808 32.6484 4.87674C31.7653 5.28612 31.0519 5.967 30.6231 6.80998L30.4532 7.10932V4.61482H30.3879C30.2311 4.61482 25.3963 5.53779 25.2395 5.60015C25.0827 5.66251 25.135 5.67498 25.135 5.89949C25.135 6.12399 25.135 6.16141 25.2395 6.17388L25.7491 6.27366C25.8918 6.277 26.0319 6.31131 26.1587 6.37397C26.2855 6.43664 26.3956 6.52603 26.4809 6.63536C26.8075 7.04696 26.8729 7.77036 26.8729 10.8511C26.9374 12.238 26.8762 13.6276 26.6899 15.0044C26.6461 15.212 26.5358 15.4015 26.3743 15.5467C26.2128 15.6919 26.008 15.7857 25.7883 15.8151L25.344 15.9024H25.1742V16.2517C25.1268 16.368 25.1268 16.497 25.1742 16.6134H32.4786V16.2517C32.5039 16.1323 32.5039 16.0093 32.4786 15.8899C32.0388 15.8736 31.6014 15.8193 31.1719 15.7278C30.938 15.611 30.7466 15.4293 30.623 15.2067C30.4993 14.9841 30.4493 14.7309 30.4793 14.4806C30.3748 13.7572 30.3225 11.6368 30.3487 10.0154C30.3748 8.39398 30.3487 8.2942 30.4924 8.18195C30.9296 7.86195 31.4707 7.69863 32.0212 7.72047C32.5401 7.73127 33.0496 7.85498 33.5108 8.08217C33.6707 8.16692 33.8423 8.2299 34.0204 8.26926C34.0204 8.26926 35.3271 5.25092 35.3271 5.11372C35.1599 4.92825 34.9469 4.7855 34.7073 4.69839C34.4678 4.61128 34.2092 4.58256 33.9551 4.61482ZM25.148 9.85327C25.1024 8.96199 24.8344 8.09402 24.3661 7.32166C23.8979 6.54931 23.2431 5.89493 22.4563 5.41306C21.5212 4.93156 20.4809 4.66606 19.4188 4.6379C18.3568 4.60975 17.3026 4.8197 16.341 5.25092C14.9813 5.93526 13.9548 7.09857 13.4793 8.49376C12.9882 10.0558 12.9882 11.7211 13.4793 13.2832C13.7368 14.1369 14.218 14.9139 14.8775 15.5407C15.6989 16.3057 16.758 16.7959 17.8959 16.9376C18.6264 16.9959 19.3607 16.9959 20.0912 16.9376C20.36 16.8986 20.6261 16.8445 20.8882 16.7755C21.9518 16.4915 22.9087 15.9243 23.6469 15.1401C24.3851 14.356 24.874 13.3875 25.0566 12.3478C25.187 11.5223 25.2177 10.6854 25.148 9.85327ZM19.7122 16.0895C18.4055 16.4637 17.4255 15.2539 17.0988 12.7095C16.9789 11.3774 16.9789 10.0379 17.0988 8.7058C17.3602 6.66031 18.0266 5.62509 19.0589 5.62509C19.2671 5.61277 19.4755 5.64824 19.6664 5.72853C19.8574 5.80882 20.0254 5.93159 20.1565 6.08657C21.032 6.92223 21.4632 8.58107 21.4632 11.0756C21.5719 12.4873 21.3394 13.904 20.7837 15.2164C20.5383 15.5992 20.1586 15.8865 19.7122 16.0271V16.0895ZM43.2326 4.86427C42.8639 4.81898 42.4906 4.81898 42.1219 4.86427C41.4141 4.8637 40.7145 5.00832 40.0704 5.28834L39.6653 5.45048V2.74395C39.7361 1.83055 39.7361 0.913401 39.6653 0C39.5085 0 34.517 0.910492 34.4386 0.947909C34.4 1.03999 34.4 1.14269 34.4386 1.23478C34.4386 1.4967 34.4386 1.48423 35.0266 1.60895C35.1917 1.64429 35.3503 1.70316 35.497 1.78357C35.7521 2.01251 35.9218 2.31469 35.9805 2.64417C36.1293 3.59335 36.1774 4.55443 36.1242 5.51284V16.4637L36.477 16.5385C36.9997 16.6508 38.4762 16.8877 38.9597 16.9376C39.9251 17.0109 40.8951 17.0109 41.8606 16.9376C42.9321 16.8332 43.9535 16.4516 44.8147 15.834C45.6759 15.2164 46.3442 14.3862 46.7476 13.4329C46.9881 12.821 47.1547 12.185 47.2441 11.5371C47.3219 10.6594 47.2912 9.77612 47.1526 8.90536C47.0125 7.92928 46.5611 7.01798 45.8599 6.29508C45.1586 5.57218 44.2414 5.07265 43.2326 4.86427ZM39.8091 15.8775C39.8091 15.7153 39.6784 10.2524 39.7045 8.0697V6.36097L40.0835 6.27366C40.3391 6.2387 40.5987 6.2387 40.8544 6.27366C41.1372 6.24622 41.4216 6.30752 41.6646 6.44828C42.1525 6.76974 42.5578 7.19267 42.8497 7.68524C43.1417 8.17781 43.3128 8.72718 43.3502 9.292C43.4454 10.2002 43.4454 11.1153 43.3502 12.0235C43.272 13.3435 42.7391 14.6019 41.8344 15.6031C41.5777 15.8359 41.2552 15.992 40.9067 16.0521C40.643 16.0959 40.3733 16.0959 40.1096 16.0521C39.8613 16.0521 39.8613 15.9773 39.8613 15.8775H39.8091Z" fill="white"/>
</svg>
