<svg viewBox="0 0 103 31" fill="none" xmlns="http://www.w3.org/2000/svg">
<path fill-rule="evenodd" clip-rule="evenodd" d="M57.2442 0.541403C56.8425 0.658641 56.622 0.971224 56.622 1.42337C56.622 2.37419 58.0151 2.66389 58.4216 1.79761C58.6055 1.40544 58.5227 0.987418 58.2105 0.733173C57.9483 0.519539 57.5738 0.445263 57.2442 0.541403ZM0.00234847 8.00028V15.0499H1.37431H2.74626V12.8533V10.6566H6.30428C8.54368 10.6566 10.0127 10.6364 10.2682 10.602C12.005 10.3681 13.5829 9.17194 14.2039 7.61842C15.2563 4.98561 13.8884 2.11535 11.1451 1.20008C10.4139 0.956103 10.2795 0.950688 4.98197 0.950688H0.00234847V8.00028ZM15.7799 8.00028V15.0591L16.2416 15.0245C18.0252 14.891 19.5511 14.2329 20.8202 13.0495C21.4658 12.4474 21.9193 11.8469 22.2991 11.0909C22.7019 10.2891 22.9957 9.29587 23.0147 8.67152L23.0203 8.48557L23.0623 8.68991C23.0853 8.80229 23.1324 9.06665 23.167 9.27738C23.2014 9.4881 23.3116 9.90091 23.4117 10.1947C23.7811 11.2781 24.3294 12.1387 25.1722 12.9577C26.4708 14.2197 28.1597 14.9537 29.8952 15.0105L30.3173 15.0243L30.3307 8.02858C30.3384 4.00704 30.3242 1.01352 30.2973 0.987469C30.233 0.925197 29.1681 1.03329 28.6145 1.15824C27.7072 1.36304 26.6893 1.82714 25.9299 2.38221C24.5032 3.42499 23.443 5.09176 23.1686 6.72318C23.1332 6.9339 23.0853 7.19826 23.0623 7.31064L23.0203 7.51498L23.0147 7.32903C23.0116 7.22681 22.9723 6.95096 22.9274 6.71603C22.4595 4.2688 20.6256 2.19714 18.1907 1.36554C17.6338 1.17536 16.8728 1.02328 16.2416 0.976077L15.7799 0.941493V8.00028ZM37.861 1.01454C37.8471 1.04969 37.8419 2.67605 37.8494 4.62873L37.8631 8.17907L38.747 8.19307L39.6308 8.20706V6.97982V5.75258H40.6287C41.7922 5.75258 42.2735 5.68163 42.8218 5.42917C43.3517 5.18509 43.7528 4.81095 43.9969 4.33296C44.193 3.94876 44.1952 3.93747 44.1952 3.32875C44.1952 2.75186 44.1855 2.69378 44.0407 2.40658C43.7121 1.7547 42.922 1.19778 42.0845 1.02752C41.5855 0.926117 37.9003 0.914776 37.861 1.01454ZM72.9535 1.37928L72.2148 1.54015L72.2001 2.23964L72.1855 2.93918L71.6988 2.95384L71.2122 2.96851L71.1973 3.56874L71.1825 4.16898H71.6854H72.1884V5.38805C72.1884 6.05847 72.2125 6.73007 72.242 6.88046C72.4001 7.68769 72.9674 8.1805 73.89 8.31199C74.3934 8.38371 74.9085 8.32052 75.3249 8.13596C75.6342 7.9989 76.0627 7.6433 76.2077 7.40336C76.295 7.25905 76.2933 7.25348 76.0379 6.84992C75.8959 6.62566 75.768 6.41923 75.7534 6.39113C75.7389 6.36304 75.6967 6.38383 75.6595 6.43731C75.3648 6.86162 75.0224 7.07765 74.6413 7.07964C74.3336 7.08128 74.0827 6.93421 73.9429 6.67025C73.8303 6.45759 73.8242 6.38781 73.8242 5.30754V4.16898H74.9076H75.991L75.9762 3.56874L75.9613 2.96851H74.8927H73.8242V2.08731C73.8242 1.4131 73.8087 1.20754 73.7582 1.21224C73.722 1.21566 73.3598 1.29081 72.9535 1.37928ZM41.5466 2.33338C42.3073 2.5207 42.6646 3.27613 42.2745 3.87177C42.1601 4.04633 42.0434 4.14247 41.8127 4.25214C41.5136 4.39431 41.475 4.39937 40.5674 4.41577L39.6308 4.43267V3.35577V2.27887H40.4781C40.9441 2.27887 41.425 2.30339 41.5466 2.33338ZM47.4894 2.85653C47.106 2.96146 46.7648 3.18423 46.5553 3.46642L46.3621 3.7269L46.2653 3.39879C46.2121 3.21831 46.1584 3.0412 46.1459 3.00518C46.1288 2.95579 45.9709 2.94322 45.5022 2.9541L44.8812 2.96851V5.57379V8.17907H45.6727H46.4642L46.4906 6.4933C46.5137 5.0157 46.5287 4.78239 46.6119 4.60391C46.8543 4.08331 47.3232 3.88434 47.7957 4.10145C47.9962 4.1935 48.2842 4.57704 48.2855 4.75369C48.2872 4.97243 48.3429 4.98423 48.7865 4.85989C49.0184 4.79486 49.3121 4.71456 49.4393 4.68145L49.6704 4.62122L49.6392 4.3656C49.5696 3.79668 49.1003 3.15568 48.6014 2.94787C48.2704 2.81004 47.8006 2.77142 47.4894 2.85653ZM52.5262 2.83758C51.2784 3.02929 50.3636 3.82738 50.127 4.93095C50.0354 5.35821 50.0911 6.22327 50.2334 6.58198C50.6207 7.5584 51.4547 8.16865 52.5955 8.31025C53.4535 8.41681 54.2393 8.24783 54.8933 7.81617C55.6932 7.28822 56.0913 6.4272 56.0246 5.36945C55.9663 4.44422 55.5801 3.7763 54.8129 3.27399C54.2747 2.92156 53.2511 2.72621 52.5262 2.83758ZM61.445 2.83768C60.8346 2.93106 60.3588 3.15374 59.9369 3.5433C59.3161 4.11657 59.0876 4.64779 59.0855 5.5227C59.0845 5.97408 59.1074 6.14879 59.2017 6.4109C59.7348 7.89208 61.371 8.63586 63.2013 8.22908C63.7254 8.11261 64.2114 7.86261 64.5503 7.53526C64.7172 7.37409 64.8537 7.22196 64.8537 7.19724C64.8537 7.17256 64.6379 7.00751 64.3741 6.83056L63.8945 6.50878L63.7277 6.67506C63.4896 6.91244 62.9835 7.12827 62.5792 7.1648C61.7123 7.24316 60.923 6.80195 60.7612 6.14848L60.7264 6.008H62.7452H64.764L64.7331 5.45885C64.6962 4.80155 64.5646 4.356 64.2826 3.93369C63.9483 3.43306 63.486 3.10515 62.8613 2.92575C62.518 2.82716 61.804 2.78271 61.445 2.83768ZM67.6054 2.83952C66.7631 2.96621 65.9829 3.5148 65.6033 4.24714C65.2683 4.89345 65.2014 5.83718 65.4436 6.49851C65.7986 7.46783 66.5833 8.10025 67.6655 8.28921C69.2199 8.56062 70.7706 7.68938 71.0727 6.37499C71.1326 6.11436 71.1814 6.14021 70.4323 6.03605C69.6152 5.92239 69.6309 5.92004 69.5547 6.16626C69.4737 6.42791 69.116 6.81104 68.8377 6.9341C68.5534 7.05982 68.0109 7.059 67.7296 6.93247C67.4638 6.81293 67.1536 6.50203 67.0425 6.2438C66.7546 5.57491 66.9892 4.6294 67.5325 4.26905C67.6935 4.16224 67.783 4.14344 68.1301 4.14344C68.4986 4.14344 68.5603 4.15835 68.7631 4.29669C68.9512 4.42491 69.1647 4.71006 69.243 4.93764C69.2546 4.9713 69.526 4.92589 69.973 4.8155C70.6494 4.64845 70.6841 4.63369 70.6758 4.51523C70.6509 4.15779 70.1849 3.5455 69.7163 3.25442C69.1606 2.9092 68.2855 2.7372 67.6054 2.83952ZM56.764 2.97571C56.744 2.99517 56.7275 4.32979 56.7275 5.94154C56.7275 9.1184 56.7294 9.09695 56.4383 9.31855C56.1124 9.56677 55.6373 9.50281 55.2988 9.16514C55.1836 9.05021 55.082 8.9652 55.073 8.97629C55.0641 8.98737 54.9083 9.18721 54.7269 9.42036C54.408 9.83026 54.3998 9.84844 54.4797 9.96655C54.5888 10.1277 54.9892 10.3912 55.3242 10.5222C55.7269 10.6798 56.7373 10.6738 57.1603 10.5113C57.5102 10.3769 57.9426 10.0205 58.1222 9.71844C58.3584 9.32126 58.3701 9.13148 58.353 5.95692L58.3369 2.96851L57.5687 2.95441C57.1463 2.94669 56.7841 2.95624 56.764 2.97571ZM9.92477 3.65855C10.289 3.72542 10.7294 3.92255 11.0078 4.14339C11.5793 4.59681 11.9057 5.44613 11.7737 6.13699C11.5905 7.09675 10.8419 7.80769 9.86144 7.95302C9.66346 7.9824 8.14856 7.99696 6.14977 7.98868L2.77265 7.97473L2.75887 5.8548C2.75128 4.68881 2.75645 3.70606 2.77038 3.67096C2.80278 3.58928 9.48447 3.57768 9.92477 3.65855ZM62.2827 4.01879C62.6478 4.11692 62.9757 4.49847 63.0814 4.94801L63.1144 5.08849H61.9204H60.7264L60.7616 4.94801C60.9446 4.21761 61.5795 3.82973 62.2827 4.01879ZM53.6406 4.27212C54.0359 4.45045 54.2613 4.72891 54.3832 5.18938C54.5202 5.70732 54.4039 6.1918 54.0513 6.57146C53.7779 6.86591 53.4486 7.00419 53.0338 6.99872C52.1188 6.98677 51.4966 6.13684 51.7307 5.2187C51.7767 5.03812 51.8747 4.80283 51.9485 4.69571C52.293 4.19549 53.0505 4.00587 53.6406 4.27212ZM37.8616 12.1493C37.8474 12.1853 37.8419 13.7894 37.8494 15.714L37.8631 19.2132L38.3248 19.228L38.7865 19.2427L38.7918 16.3673L38.797 13.4918L38.9026 13.7217C38.9607 13.8481 39.5341 15.1354 40.177 16.5824L41.3458 19.2132L41.8231 19.2278L42.3006 19.2423L43.6028 16.316L44.905 13.3896L44.9062 16.3142L44.9076 19.2388H45.3561H45.8046V15.6629V12.087H45.1564H44.5081L44.2124 12.7639C44.0497 13.1362 43.459 14.4982 42.8997 15.7906C42.3404 17.083 41.8682 18.1572 41.8502 18.1777C41.8322 18.1982 41.2211 16.8419 40.4921 15.1638L39.1667 12.1125L38.5271 12.0982C38.0447 12.0874 37.8811 12.0999 37.8616 12.1493ZM99.865 12.4929L99.4956 12.5806L99.481 13.3282L99.4665 14.0758L98.9006 14.0903L98.3348 14.1048V14.4369V14.7689L98.8988 14.7834L99.4629 14.7978L99.4793 16.5202L99.4956 18.2426L99.6319 18.5239C99.8049 18.8807 100.05 19.1182 100.419 19.2856C100.664 19.3969 100.784 19.4175 101.184 19.4175C101.607 19.4175 101.698 19.3999 102.007 19.2581C102.425 19.0661 102.709 18.8033 102.878 18.4522C103.058 18.0788 103.045 17.9799 102.807 17.8812C102.375 17.7027 102.37 17.7018 102.338 17.7962C102.198 18.2205 101.945 18.5322 101.644 18.6542C101.27 18.8055 100.849 18.7292 100.593 18.4639C100.329 18.1895 100.314 18.078 100.314 16.3807V14.7964L101.488 14.7826L102.662 14.7689V14.4369V14.1048L101.488 14.0911L100.314 14.0773V13.2354C100.314 12.7723 100.296 12.3962 100.274 12.3994C100.252 12.4026 100.068 12.4447 99.865 12.4929ZM48.9355 13.9324C47.9581 14.0491 47.1021 14.6733 46.9436 15.3848C46.9096 15.5375 46.9166 15.5441 47.2548 15.6786C47.6762 15.8461 47.7043 15.8473 47.7043 15.6972C47.7043 15.5131 48.0003 15.1238 48.2735 14.9486C48.6345 14.7171 49.0161 14.6245 49.4939 14.6525C49.9841 14.6812 50.3584 14.8289 50.634 15.1021C50.8058 15.2724 50.8383 15.3416 50.8587 15.5792C50.8919 15.9665 50.8375 15.9928 49.7345 16.1225C48.2843 16.293 47.7385 16.4644 47.243 16.9049C46.9188 17.193 46.8098 17.4395 46.8084 17.8878C46.8059 18.6368 47.2967 19.1619 48.1897 19.3657C49.1793 19.5915 50.2033 19.2975 50.7252 18.6377L50.8703 18.4543V18.6058C50.8703 18.855 51.0833 19.1992 51.3188 19.3305C51.6914 19.5382 52.3063 19.432 52.6776 19.0957C52.7574 19.0234 52.8227 18.9398 52.8225 18.9099C52.8225 18.88 52.7303 18.7522 52.6176 18.6257L52.4128 18.3959L52.2675 18.5363C52.1132 18.6856 51.8591 18.7259 51.7837 18.613C51.7602 18.5779 51.7291 17.8135 51.7146 16.9144C51.6888 15.3193 51.6852 15.2742 51.5635 15.0499C51.3587 14.6727 51.1898 14.4875 50.8648 14.2842C50.3715 13.9755 49.6601 13.8458 48.9355 13.9324ZM73.8348 13.9332C73.1918 14.0098 72.5271 14.3871 72.1242 14.9039C71.7045 15.4424 71.5293 16.0387 71.5711 16.7867C71.643 18.0729 72.4398 19.0308 73.6968 19.342C74.6469 19.5773 75.6092 19.3958 76.3725 18.8375C76.6578 18.6288 77.0184 18.1574 76.9754 18.0491C76.9599 18.0098 76.7981 17.9236 76.6159 17.8577C76.3506 17.7616 76.2799 17.7516 76.2606 17.8076C76.2016 17.9789 75.7873 18.3329 75.4676 18.4853C75.1332 18.6446 75.0939 18.6513 74.4849 18.6513C73.8966 18.6513 73.8287 18.6409 73.5489 18.5078C72.9855 18.2401 72.5445 17.693 72.4705 17.1701L72.438 16.9411L74.6482 16.9278L76.8583 16.9144L76.8442 16.4802C76.8091 15.4044 76.2459 14.5079 75.3601 14.118C74.9855 13.953 74.3324 13.8739 73.8348 13.9332ZM79.9716 13.9293C79.5269 13.9651 79.1454 14.1385 78.8442 14.442L78.6359 14.6519L78.5911 14.3784L78.5463 14.1048L78.1904 14.0897L77.8345 14.0746V16.6567V19.2388H78.2567H78.6788V17.511C78.6788 15.5213 78.6907 15.451 79.0955 15.0469C79.2755 14.8673 79.4127 14.7833 79.6251 14.7228C80.2102 14.5562 80.6362 14.6462 81.0323 15.0201C81.4612 15.4251 81.4755 15.5061 81.4755 17.5367V19.2388H81.8951H82.3146L82.3304 17.4891C82.3458 15.7876 82.3495 15.7325 82.4676 15.4841C82.7291 14.934 83.1344 14.6757 83.7445 14.6703C84.2527 14.6657 84.5729 14.8063 84.8275 15.1459C85.1427 15.5664 85.1692 15.7564 85.1692 17.5947V19.2388H85.5914H86.0135L86.0127 17.5658C86.0119 15.7104 85.9825 15.4743 85.6863 14.9361C85.4893 14.5784 85.1481 14.2691 84.7471 14.0849C84.4888 13.9662 84.3929 13.9516 83.8753 13.9516C83.3259 13.9516 83.2746 13.9607 82.9454 14.1176C82.6265 14.2696 82.2717 14.5717 82.1171 14.8228C82.0565 14.9212 82.0554 14.9212 81.9949 14.8228C81.8441 14.578 81.4882 14.2709 81.1907 14.1291C80.8027 13.9442 80.4684 13.8894 79.9716 13.9293ZM89.2547 13.9326C88.6711 13.9731 88.1399 14.1891 87.7209 14.5563C86.4214 15.6951 86.5607 17.9197 87.9935 18.9094C89.1334 19.6969 90.8791 19.5918 91.8238 18.6788C92.1358 18.3774 92.3318 18.0774 92.2578 18.0148C92.2336 17.9943 92.0731 17.9237 91.9013 17.858L91.5888 17.7384L91.5074 17.8628C91.3626 18.0839 91.0148 18.3681 90.7135 18.5114C90.4408 18.6412 90.3721 18.6513 89.76 18.6513C89.1103 18.6513 89.0955 18.6487 88.7705 18.4781C88.2279 18.1932 87.8286 17.6784 87.7262 17.1315L87.6903 16.94H89.9125H92.1346L92.1327 16.5952C92.1269 15.5091 91.5761 14.575 90.6965 14.1594C90.2374 13.9425 89.8927 13.8883 89.2547 13.9326ZM55.3706 13.9974C55.0348 14.1031 54.714 14.3021 54.4752 14.5529L54.2606 14.7784L54.233 14.4833C54.2178 14.3211 54.1897 14.1638 54.1705 14.1338C54.1513 14.1038 53.9827 14.0793 53.7958 14.0793H53.4559V16.659V19.2388H53.8484H54.2408L54.2597 17.5913C54.2812 15.7147 54.2938 15.6469 54.7033 15.206C55.1469 14.7283 55.8286 14.5347 56.426 14.7166C56.8119 14.8341 57.0582 15.0399 57.2386 15.3957L57.3871 15.6884L57.4034 17.4636L57.4197 19.2388H57.8387H58.2578V17.5382C58.2578 15.7234 58.2339 15.5069 57.9781 14.9993C57.8125 14.6707 57.364 14.252 57.0055 14.0913C56.7468 13.9753 56.618 13.9528 56.1471 13.9411C55.7848 13.9322 55.516 13.9517 55.3706 13.9974ZM60.8046 14.0019C60.1661 14.175 59.5816 14.5987 59.3436 15.0611C59.1348 15.4667 59.1523 15.5226 59.5374 15.6809C59.7188 15.7554 59.8812 15.8163 59.8984 15.8163C59.9156 15.8162 59.9566 15.7289 59.9897 15.6223C60.0786 15.3348 60.3898 15.0156 60.7554 14.8369C61.3639 14.5396 62.2197 14.5865 62.7313 14.9453C63.0261 15.1521 63.1324 15.3237 63.1359 15.5986C63.1405 15.9629 63.0564 15.9986 61.846 16.1464C60.706 16.2855 60.1993 16.4221 59.7483 16.712C58.7362 17.3624 58.8536 18.6672 59.9727 19.2053C60.6568 19.5342 61.7035 19.5103 62.387 19.1502C62.5299 19.0748 62.7635 18.8897 62.906 18.7387L63.1652 18.4643V18.6652C63.1652 18.89 63.3159 19.1417 63.5518 19.3107C63.7494 19.4523 64.313 19.457 64.6048 19.3196C64.8176 19.2193 65.119 18.971 65.1153 18.899C65.1141 18.8751 65.0211 18.7542 64.9087 18.6303L64.7044 18.4051L64.5375 18.5409C64.3591 18.6863 64.1621 18.7169 64.0733 18.613C64.0394 18.5733 64.0104 17.95 63.9969 16.9655C63.9717 15.1284 63.9597 15.0712 63.5046 14.5953C63.2997 14.381 63.1187 14.2542 62.838 14.1283C62.471 13.9635 62.4203 13.9547 61.7668 13.9412C61.2853 13.9312 60.9985 13.9494 60.8046 14.0019ZM67.1271 14.0071C66.2571 14.2336 65.5534 14.9513 65.3009 15.8695C65.1996 16.2381 65.2012 17.0925 65.3039 17.4742C65.5487 18.3842 66.3 19.1004 67.2332 19.3133C67.6624 19.4113 68.0089 19.411 68.4412 19.3124C68.8698 19.2146 69.1809 19.0439 69.5415 18.7088L69.8233 18.447L69.8029 19.0344C69.785 19.5535 69.7651 19.6572 69.6314 19.9252C69.3138 20.5623 68.7017 20.9515 67.9262 21.0094C66.9124 21.0851 65.9565 20.65 65.5896 19.946C65.526 19.8239 65.4668 19.7162 65.4581 19.7067C65.4239 19.6692 64.8009 20.115 64.8009 20.177C64.8009 20.3008 65.1277 20.7208 65.4209 20.9738C65.7742 21.2786 66.3287 21.549 66.8429 21.6671C67.3692 21.788 68.3867 21.7506 68.8377 21.5937C69.7148 21.2885 70.4239 20.5221 70.6022 19.6864C70.6404 19.5076 70.6549 18.5276 70.6457 16.7612L70.6318 14.1048L70.3206 14.0893C70.1496 14.0807 69.99 14.0927 69.9659 14.1159C69.942 14.1391 69.9065 14.3232 69.8872 14.525L69.8519 14.8919L69.6276 14.6516C69.0503 14.0332 68.0336 13.7712 67.1271 14.0071ZM95.0318 14.0008C94.5827 14.1609 94.2064 14.4126 94.0324 14.6694L93.938 14.8086L93.9032 14.5078C93.8506 14.0549 93.8691 14.0727 93.4677 14.0897L93.1108 14.1048L93.0971 16.6718L93.0834 19.2388H93.5028H93.9222L93.9386 17.5402L93.955 15.8417L94.1002 15.5752C94.2852 15.2354 94.5451 14.9844 94.8934 14.8093C95.1295 14.6906 95.2326 14.6709 95.6172 14.6708C96.1245 14.6707 96.3641 14.7602 96.6535 15.0581C97.0484 15.4648 97.0947 15.7412 97.0947 17.6901V19.2388H97.5215H97.9483L97.927 17.4636C97.9072 15.8209 97.8973 15.6639 97.7933 15.3608C97.5751 14.7248 97.0932 14.2298 96.4933 14.0257C96.1458 13.9075 95.3325 13.8936 95.0318 14.0008ZM68.7247 14.8101C69.27 15.0518 69.6176 15.474 69.7857 16.0989C70.0505 17.0828 69.6214 18.0783 68.7663 18.4641C68.3465 18.6535 67.6968 18.68 67.2704 18.5252C66.4891 18.2414 65.9276 17.2984 66.0378 16.4549C66.1566 15.5455 66.6971 14.8843 67.4772 14.6937C67.8084 14.6128 68.4052 14.6685 68.7247 14.8101ZM74.9734 14.7936C75.4415 14.99 75.8009 15.4626 75.9549 16.0843L75.9897 16.2248H74.221C72.2064 16.2248 72.3602 16.2687 72.578 15.7559C72.8053 15.2209 73.1718 14.89 73.7338 14.7123C74.0514 14.6118 74.6306 14.6498 74.9734 14.7936ZM90.2449 14.7869C90.7072 14.98 91.1142 15.5038 91.2134 16.0332L91.2493 16.2248H89.4747H87.7001L87.7333 16.0843C87.8417 15.6258 88.2057 15.1162 88.5884 14.8872C89.0271 14.6247 89.7515 14.5809 90.2449 14.7869ZM0.00234847 17.9798V19.7349L0.378634 19.7688C0.822304 19.8087 1.44575 20.001 1.84172 20.22C2.54844 20.611 3.19732 21.3964 3.4638 22.1835C3.6011 22.5891 3.61651 22.7018 3.61308 23.2744C3.60975 23.8211 3.58917 23.9717 3.46981 24.3216C3.01358 25.6593 1.80816 26.6033 0.381747 26.7398L0.0287323 26.7736L0.0148544 28.5233L0.000976562 30.2729H7.28359H14.5662V28.5105V26.7481H14.3108C13.9431 26.7481 13.2975 26.575 12.8882 26.3668C12.0029 25.9162 11.3757 25.1826 11.0747 24.245C10.9746 23.9334 10.9516 23.7473 10.9516 23.2488C10.9516 22.7103 10.9702 22.5809 11.1048 22.1835C11.5512 20.8649 12.7919 19.8946 14.1927 19.7685L14.5662 19.7349V17.9798V16.2248H7.28428H0.00234847V17.9798ZM24.0644 22.2272C27.4744 25.5285 30.2822 28.2295 30.304 28.2295C30.3259 28.2295 30.3437 27.3272 30.3437 26.2244V24.2192L26.2145 20.222L22.0853 16.2248H19.9748H17.8643L24.0644 22.2272ZM26.2806 16.2634C26.2806 16.3134 30.2526 20.1583 30.3044 20.1583C30.326 20.1583 30.3437 19.2732 30.3437 18.1915V16.2248H28.3122C27.1948 16.2248 26.2806 16.2422 26.2806 16.2634ZM50.8598 17.0876C50.819 17.7703 50.5342 18.194 49.9053 18.5078C49.6767 18.6219 49.5432 18.6487 49.1135 18.667C48.5189 18.6922 48.2205 18.6296 47.9154 18.4156C47.3991 18.0536 47.58 17.3972 48.2735 17.1157C48.607 16.9802 48.7525 16.9561 50.8375 16.6905C50.863 16.6872 50.873 16.8659 50.8598 17.0876ZM63.1448 17.1056C63.0986 17.5874 62.946 17.9059 62.6175 18.2066C62.2073 18.5823 61.861 18.6915 61.16 18.6662C60.7271 18.6506 60.5598 18.6227 60.3949 18.5388C60.0783 18.3776 59.938 18.2062 59.9074 17.9427C59.8583 17.521 60.1821 17.2043 60.853 17.018C61.1801 16.9272 63.0572 16.6864 63.1325 16.7257C63.158 16.739 63.1636 16.91 63.1448 17.1056ZM15.7799 20.2351V22.2785L19.9103 26.2769L24.0407 30.2753L26.1369 30.2868C27.2897 30.2932 28.233 30.2869 28.233 30.2728C28.233 30.2587 25.431 27.5347 22.0064 24.2194L15.7799 18.1917V20.2351ZM55.9565 23.1481C55.7516 23.2494 55.6464 23.4339 55.653 23.6803C55.6599 23.9323 55.7975 24.1244 56.0229 24.1964C56.2677 24.2746 56.5265 24.2213 56.6952 24.058C56.8083 23.9485 56.833 23.8771 56.833 23.6601C56.833 23.4352 56.8102 23.3745 56.6807 23.2543C56.4911 23.0785 56.1873 23.034 55.9565 23.1481ZM37.8618 23.1829C37.8475 23.2192 37.8419 24.835 37.8494 26.7736L37.8631 30.2984H38.3116H38.7601V26.7226V23.1467L38.324 23.1318C38.0049 23.121 37.8808 23.1347 37.8618 23.1829ZM51.9652 23.5659L51.6618 23.643V24.4037V25.1645H51.0814H50.5009V25.4965V25.8286H51.0788H51.6568L51.6725 27.6038C51.6874 29.2871 51.694 29.3908 51.7998 29.6088C51.9307 29.8786 52.2427 30.1927 52.5129 30.3269C53.4158 30.775 54.747 30.3101 55.0881 29.4275C55.1482 29.2723 55.1972 29.1218 55.1972 29.0932C55.1972 29.0439 54.6684 28.7915 54.565 28.7915C54.5382 28.7915 54.4925 28.8746 54.4635 28.9763C54.2556 29.7053 53.3664 30.0417 52.837 29.5916C52.5123 29.3157 52.5061 29.2758 52.5061 27.4649V25.8286H53.667H54.8279V25.4965V25.1645H53.667H52.5061V24.3216C52.5061 23.3546 52.5509 23.4172 51.9652 23.5659ZM58.7591 23.5724L58.4425 23.6579L58.4278 24.4112L58.4133 25.1645H57.8606H57.3079V25.4965V25.8286H57.8577H58.4075L58.425 27.5527L58.4425 29.2768L58.5791 29.5577C58.7611 29.9318 58.9354 30.1224 59.2428 30.2836C59.5815 30.4612 60.0109 30.5336 60.4012 30.479C61.1932 30.3683 61.7413 29.9098 61.9751 29.1626C62.0067 29.0618 61.9752 29.0332 61.707 28.9183C61.3907 28.7829 61.2655 28.7833 61.2655 28.9196C61.2655 29.0694 61.0583 29.3939 60.8633 29.5495C60.2946 30.0034 59.4907 29.7849 59.3203 29.1302C59.2821 28.9832 59.2604 28.3421 59.2604 27.364V25.8286H60.4476H61.6349V25.4965V25.1645H60.4476H59.2604V24.3216C59.2604 23.3612 59.3033 23.4254 58.7591 23.5724ZM69.4181 23.5725L69.1015 23.6581V24.3985V25.139L68.5211 25.1645L67.9406 25.19L67.9249 25.5093L67.9092 25.8286L68.5053 25.8285H69.1015L69.0868 27.3671C69.0782 28.2584 69.0946 29.0237 69.1257 29.1864C69.2818 30.0037 69.8928 30.4907 70.7623 30.4907C71.2598 30.4907 71.5995 30.3879 71.9489 30.1315C72.2671 29.8981 72.4829 29.611 72.5836 29.2869L72.6592 29.0438L72.3645 28.9176C72.0063 28.7643 71.9246 28.7602 71.9246 28.8957C71.9246 29.215 71.4986 29.6612 71.1013 29.758C70.6617 29.8652 70.2569 29.6976 70.055 29.3249C69.9522 29.1353 69.9449 29.027 69.9305 27.476L69.9152 25.8286H71.1046H72.2939V25.4965V25.1645H71.1067H69.9194V24.3216C69.9194 23.3612 69.9623 23.4254 69.4181 23.5725ZM42.0524 25.0342C41.6818 25.1331 41.2773 25.3669 41.0565 25.6097L40.8577 25.8285L40.8247 25.6689C40.8065 25.5811 40.7917 25.4307 40.7917 25.3347V25.16L40.4091 25.175L40.0266 25.19V27.7442V30.2984H40.4223H40.8181L40.8445 28.6127L40.8708 26.9269L41.0175 26.6377C41.301 26.0789 41.7903 25.7727 42.4564 25.7373C42.9812 25.7094 43.3382 25.8361 43.6142 26.1483C43.9626 26.5423 43.9762 26.6288 43.9982 28.5764L44.018 30.3282L44.4232 30.3133L44.8284 30.2984L44.8432 28.7148C44.8596 26.9695 44.8258 26.6243 44.5919 26.1454C44.1431 25.2268 43.0776 24.7605 42.0524 25.0342ZM47.2159 25.0156C46.9592 25.0742 46.5501 25.2759 46.3388 25.448C45.8122 25.877 45.6683 26.7635 46.0471 27.2444C46.3701 27.6543 46.748 27.8114 48.0021 28.057C49.2032 28.2922 49.5357 28.4868 49.4846 28.9249C49.4498 29.2241 49.2829 29.425 48.9298 29.5929C48.6565 29.7228 48.5748 29.7365 48.0736 29.736C47.5742 29.7355 47.4867 29.7209 47.1864 29.5871C46.7946 29.4125 46.5112 29.1209 46.4225 28.801L46.3614 28.5807L46.1064 28.6147C45.6244 28.6788 45.5654 28.7079 45.5827 28.8728C45.6102 29.1358 45.8505 29.5366 46.139 29.8008C46.6457 30.2647 47.2683 30.4905 48.0462 30.4925C48.7824 30.4945 49.3468 30.3041 49.7983 29.9012C50.3856 29.377 50.4934 28.5556 50.0388 28.0685C49.6664 27.6694 49.2263 27.4957 47.9742 27.2537C47.521 27.1661 47.087 27.0629 47.0097 27.0245C46.4774 26.7592 46.5608 26.1048 47.163 25.8226C47.7102 25.5662 48.4209 25.663 48.839 26.0508C48.9835 26.1848 49.0882 26.3337 49.1091 26.4348C49.1409 26.5886 49.1544 26.5976 49.3064 26.5652C49.7141 26.4786 49.8945 26.4068 49.9108 26.3247C49.9613 26.0711 49.4323 25.4436 48.9798 25.2201C48.5036 24.9849 47.7391 24.8963 47.2159 25.0156ZM75.0562 25.0327C74.1176 25.2531 73.3417 26.0219 73.114 26.9572C72.8743 27.9412 73.1632 29.0097 73.8506 29.6822C74.4089 30.2283 75.0933 30.4905 75.9613 30.4905C76.7362 30.4905 77.4153 30.2618 77.9459 29.822C78.1679 29.6381 78.4678 29.234 78.4678 29.1189C78.4678 29.0852 78.3194 28.9994 78.138 28.9282L77.8082 28.7986L77.7049 28.9355C77.5016 29.205 77.2222 29.4243 76.8847 29.5791C76.5685 29.7242 76.4985 29.7364 75.9877 29.7353C75.5291 29.7343 75.3791 29.713 75.117 29.612C74.5311 29.3863 73.9297 28.6451 73.9297 28.1489V28.0263L76.1328 28.013L78.3358 27.9997L78.3202 27.5477C78.2665 26.0008 77.209 24.9483 75.725 24.9645C75.5067 24.9669 75.2058 24.9976 75.0562 25.0327ZM55.8305 27.7442V30.3283L56.2394 30.3133L56.6484 30.2984V27.7442V25.19L56.2394 25.1751L55.8305 25.1602V27.7442ZM62.5319 26.8812C62.5319 29.0307 62.5762 29.2477 63.138 29.8526C63.9246 30.6996 65.4065 30.7143 66.2653 29.8835L66.5423 29.6154V29.8387C66.5423 29.9614 66.5654 30.1209 66.5937 30.1929C66.6417 30.3151 66.6684 30.324 66.9895 30.324H67.3338V27.7442V25.1645H66.9142H66.4947L66.4789 26.8886L66.4631 28.6127L66.3205 28.8744C66.0379 29.393 65.4202 29.7621 64.8348 29.7621C64.2648 29.7621 63.8324 29.5171 63.5591 29.0395L63.4026 28.7659L63.3864 26.9652L63.3701 25.1645H62.951H62.5319V26.8812ZM76.4626 25.8515C76.841 26.0426 77.0384 26.2395 77.2242 26.611C77.3251 26.8129 77.4147 27.0469 77.4232 27.1312L77.4388 27.2845L75.6843 27.2979C73.6776 27.3133 73.8335 27.3583 74.0443 26.8252C74.2331 26.3474 74.6859 25.9332 75.1962 25.7713C75.4324 25.6964 76.259 25.7487 76.4626 25.8515ZM15.7799 28.2669V30.2705L17.8165 30.2845C18.9366 30.2921 19.8613 30.2855 19.8714 30.2697C19.8815 30.2539 18.965 29.346 17.8348 28.2522L15.7799 26.2633V28.2669ZM79.4818 29.0807C79.2129 29.2091 79.0746 29.4349 79.0746 29.7456C79.0746 30.1903 79.382 30.489 79.8397 30.489C80.2884 30.489 80.5988 30.1954 80.5988 29.771C80.5988 29.1818 80.0199 28.824 79.4818 29.0807ZM80.1203 29.1805C80.3548 29.2887 80.4729 29.4922 80.4729 29.7878C80.4729 29.9925 80.4466 30.0532 80.2935 30.2014C80.1371 30.3528 80.0801 30.3751 79.8491 30.3751C79.6424 30.3751 79.549 30.3466 79.4251 30.2457C79.0498 29.9399 79.1165 29.3513 79.547 29.1698C79.7623 29.079 79.9064 29.0817 80.1203 29.1805ZM79.5055 29.2853C79.4862 29.304 79.4703 29.5224 79.4703 29.7706C79.4703 30.1877 79.4783 30.2218 79.5759 30.2218C79.6613 30.2218 79.6814 30.1877 79.6814 30.043C79.6814 29.9173 79.7052 29.8642 79.7614 29.8642C79.8054 29.8642 79.881 29.9447 79.9295 30.043C79.9823 30.1503 80.0558 30.2218 80.1133 30.2218C80.23 30.2218 80.231 30.2066 80.1261 30.0103C80.0542 29.8757 80.0531 29.8436 80.1181 29.7702C80.2625 29.6069 80.266 29.5061 80.1318 29.3761C80.0343 29.2817 79.9465 29.2512 79.7718 29.2512C79.6447 29.2512 79.5248 29.2665 79.5055 29.2853ZM31.2781 29.3343C31.1968 29.413 31.2469 29.5066 31.3705 29.5066C31.4957 29.5066 31.5007 29.5202 31.5156 29.9025C31.5277 30.2137 31.5479 30.2984 31.6101 30.2984C31.6723 30.2984 31.6926 30.2141 31.7046 29.9057C31.7197 29.521 31.7229 29.5127 31.8629 29.497C31.9475 29.4876 32.0059 29.4498 32.0059 29.4045C32.0059 29.3457 31.9255 29.3244 31.6607 29.313C31.4708 29.3048 31.2986 29.3144 31.2781 29.3343ZM32.1202 29.3364C32.1009 29.3551 32.085 29.5849 32.085 29.8472C32.085 30.2369 32.0995 30.324 32.1642 30.324C32.2265 30.324 32.2438 30.2507 32.2454 29.9792L32.2474 29.6343L32.3953 29.9664C32.5823 30.3861 32.6827 30.4009 32.8436 30.0326C33.0081 29.656 33.0349 29.6526 33.0349 30.0089C33.0349 30.2582 33.0518 30.324 33.1159 30.324C33.1843 30.324 33.1946 30.2462 33.1819 29.8265C33.1688 29.3977 33.1539 29.3266 33.0732 29.3117C33.0018 29.2985 32.9405 29.3803 32.8139 29.6577C32.7227 29.8576 32.6322 30.003 32.6127 29.9809C32.5931 29.9589 32.5229 29.8144 32.4564 29.6599C32.3189 29.3398 32.2174 29.2423 32.1202 29.3364ZM79.9999 29.4832C80.0848 29.5823 80.0088 29.6672 79.817 29.6876C79.699 29.7001 79.6814 29.6827 79.6814 29.5532C79.6814 29.4307 79.7035 29.4045 79.8069 29.4045C79.8759 29.4045 79.9627 29.4399 79.9999 29.4832Z" fill="white"/>
</svg>
