<svg viewBox="0 0 33 51" fill="none" xmlns="http://www.w3.org/2000/svg">
<path d="M16.5641 1.90748C16.4215 2.37914 16.0968 2.88764 15.6294 3.40248C15.1584 3.92276 14.5439 4.44726 13.829 4.9461C13.1105 5.44765 12.2935 5.92022 11.4242 6.33179C10.5542 6.74396 9.63567 7.09363 8.7159 7.34879C7.80097 7.60334 6.97601 7.73922 6.26988 7.76851C5.56949 7.7972 4.98746 7.7202 4.54992 7.5505C4.11812 7.38291 3.82582 7.12413 3.69991 6.78563C3.57399 6.45227 3.60887 6.0413 3.82447 5.5636C3.88999 5.41897 3.96971 5.27312 4.06377 5.12546C4.15662 4.97901 4.26321 4.83045 4.38234 4.68219C4.50131 4.53362 4.6316 4.38536 4.77367 4.23619C4.91454 4.08853 5.06657 3.94027 5.22918 3.79352L5.66536 3.41245L6.09414 3.0658L6.50179 2.76112L6.90747 2.47728L7.30877 2.21669L7.69694 1.98116L8.08088 1.76345C8.08088 1.76345 7.30122 2.35861 6.91743 2.84356C6.84708 2.93233 6.7811 3.01718 6.72056 3.09962C6.59509 3.27022 6.49348 3.42905 6.4263 3.58547C6.32605 3.81919 6.31669 4.01697 6.38765 4.1761C6.41135 4.22864 6.44381 4.27696 6.48442 4.32074C6.53017 4.36996 6.58649 4.41314 6.65262 4.45058C6.70606 4.48078 6.766 4.50705 6.83198 4.52939C7.05452 4.60458 7.34486 4.63357 7.69196 4.61243C8.04103 4.59069 8.44474 4.51883 8.89164 4.39079C9.33839 4.26307 9.78469 4.09155 10.2071 3.89166C10.6303 3.69176 11.0279 3.46318 11.3811 3.22191C11.7326 2.98095 12.0387 2.727 12.2762 2.47547C12.5129 2.22454 12.683 1.97572 12.7653 1.74412C12.8469 1.51373 12.8339 1.32198 12.7428 1.17221C12.6518 1.02334 12.4824 0.915243 12.2493 0.852436C12.0175 0.789628 11.7308 0.804122 11.3911 0.868742C11.2862 0.888528 11.1757 0.904925 11.0599 0.92209C10.8101 0.959151 10.5361 0.999793 10.2426 1.08585C10.1011 1.12782 9.99047 1.16436 9.88086 1.20603C9.81005 1.23321 9.73954 1.26219 9.66149 1.29662L9.60925 1.31987L9.54161 1.35037C10.3542 0.931247 10.8372 0.732558 11.7097 0.459587C12.2742 0.282639 12.6612 0.179973 13.1804 0.087573C13.7835 -0.0199245 14.2926 -0.0123755 14.7507 0.0253694C15.2126 0.0640202 15.6033 0.160043 15.9074 0.312835C16.2146 0.466834 16.434 0.6773 16.5492 0.94242C16.6669 1.20996 16.6769 1.53305 16.5641 1.90748Z" fill="white"/>
<path d="M27.7188 22.1022C27.7188 22.1022 27.5209 22.6539 27.3414 22.9806C27.1747 23.2823 26.8489 23.7126 26.8489 23.7126L26.7568 23.8358L26.6695 23.952C26.469 24.2138 26.1377 24.607 26.1377 24.607L25.6921 25.1019C25.234 25.5895 24.709 26.06 24.1324 26.5021C23.5533 26.9459 22.922 27.3605 22.2532 27.7353C21.5831 28.11 20.8761 28.4431 20.147 28.7239C19.4193 29.0044 18.6704 29.2318 17.9155 29.3948C17.7668 29.4268 17.6199 29.4564 17.4742 29.4824C17.3285 29.5087 17.184 29.5328 17.0427 29.5534C16.9007 29.5748 16.7606 29.5926 16.6215 29.6083C16.5613 29.615 16.5016 29.621 16.4423 29.6267C16.3651 29.634 16.2886 29.6403 16.2122 29.6461L15.3878 29.682L15.2065 29.6838L14.3249 29.6581L13.4286 29.5754C13.4286 29.5754 13.2755 29.5555 13.1778 29.5416C12.8053 29.4878 12.5956 29.4513 12.2274 29.3734C12.0557 29.3372 11.8415 29.2843 11.6596 29.2378C11.4441 29.1829 11.274 29.1367 11.274 29.1367L10.7938 28.9715L10.6629 28.906C11.0016 29.0421 11.4437 29.1699 11.8819 29.2387C12.324 29.3073 12.7948 29.3462 13.2935 29.3532C13.7944 29.3601 14.3237 29.335 14.8751 29.2759C15.4297 29.2158 16.0081 29.1216 16.6063 28.9911C17.9778 28.6913 19.3363 28.2278 20.6271 27.6389C21.9188 27.0498 23.1334 26.3408 24.2197 25.5521C25.3004 24.7676 26.2471 23.9103 27.0149 23.0205C27.2799 22.7131 27.4981 22.4335 27.7206 22.0895C27.731 22.0775 27.7188 22.1022 27.7188 22.1022Z" fill="white"/>
<path d="M19.8183 0.65737L20.7891 1.02485L21.7468 1.46662L22.0841 1.64297C22.1501 1.67799 22.2141 1.71453 22.276 1.75227C22.4649 1.86792 22.634 1.99716 22.7821 2.13939C22.9799 2.32992 23.1403 2.5428 23.2587 2.77954C23.3242 2.90999 23.3769 3.04738 23.4165 3.19141C23.4292 3.23731 23.4405 3.28381 23.4503 3.33122C23.4662 3.40701 23.4785 3.48461 23.4874 3.56373C23.5192 3.85089 23.5036 4.161 23.4373 4.49376C23.2631 5.37126 22.7523 6.32001 21.97 7.28236C21.1753 8.2607 20.1048 9.24751 18.8358 10.1818C17.5552 11.1242 16.0816 12.0053 14.5014 12.7629C12.9202 13.5202 11.2471 14.1456 9.57211 14.5792C8.07439 14.9666 6.71557 15.1647 5.53355 15.1919C4.36935 15.2188 3.38315 15.0805 2.60817 14.7978C1.84633 14.5194 1.29163 14.1033 0.967327 13.5688C0.649967 13.0449 0.555756 12.4084 0.708246 11.6771L0.776488 11.3658L1.05293 10.3324L1.39883 9.33266L1.75529 8.48808L2.08125 7.79871L2.02675 7.93821C2.03153 7.92839 2.03071 7.93024 2.02798 7.93636L2.02675 7.93912L2.01377 7.9669C1.70441 8.65506 1.64175 9.25475 1.79983 9.75057C1.96349 10.2627 2.36147 10.6631 2.96464 10.9327C3.57776 11.2069 4.40151 11.3452 5.40145 11.3277C6.41377 11.3096 7.60213 11.1314 8.92365 10.7745C10.2553 10.4146 11.5862 9.91001 12.8452 9.3079C14.1042 8.70609 15.282 8.01038 16.3115 7.27028C17.3344 6.53622 18.2048 5.76199 18.8607 4.99502C19.5084 4.23831 19.9455 3.49277 20.1159 2.80339C20.2045 2.44648 20.2169 2.12248 20.1612 1.8329C20.1066 1.54573 19.9844 1.29209 19.8028 1.07287C19.6231 0.856059 19.385 0.672468 19.095 0.524206C18.8996 0.42456 18.6815 0.341219 18.4416 0.272674L18.0851 0.176651C18.2395 0.198996 18.3256 0.215302 18.4416 0.245196C18.4416 0.245196 18.5616 0.274788 18.7053 0.312231C18.8068 0.338501 18.92 0.368697 19.0112 0.39527C19.3299 0.486763 19.8183 0.65737 19.8183 0.65737Z" fill="white"/>
<path d="M26.3315 5.15505L27.0554 6.06425L27.7129 7.04049L28.0069 7.53872C28.0944 7.69362 28.1684 7.85638 28.2293 8.02638C28.2903 8.19669 28.338 8.37454 28.371 8.55995C28.4052 8.74565 28.4237 8.93981 28.4275 9.14061C28.4319 9.34232 28.4195 9.55128 28.3922 9.76748C28.2498 10.885 27.6962 12.0829 26.8063 13.292C25.8977 14.5252 24.645 15.7596 23.1393 16.9182C21.6162 18.0898 19.8488 19.172 17.9399 20.0854C16.0309 20.9992 14.0008 21.7335 11.9644 22.2118C10.5127 22.5524 9.16552 22.7384 7.95074 22.7825C6.74954 22.8263 5.68257 22.7324 4.76839 22.5159C3.86855 22.3024 3.12045 21.9724 2.54129 21.5394C1.9721 21.1142 1.56626 20.5912 1.33813 19.9849L1.10834 19.323L0.793851 18.1912L0.573874 17.0507L0.528429 16.7292L0.46381 16.0866C0.547754 16.6993 0.803212 17.2346 1.22701 17.6812C1.7023 18.1813 2.38336 18.5675 3.24908 18.8211C4.1296 19.0799 5.19838 19.2004 6.42886 19.1645C7.67596 19.127 9.08294 18.9286 10.6172 18.5512C12.5373 18.0786 14.4531 17.3753 16.2596 16.512C18.0655 15.6487 19.7433 14.6357 21.1942 13.545C22.6303 12.4667 23.8315 11.3223 24.712 10.1842C25.5758 9.06784 26.1252 7.96599 26.2874 6.94295C26.3328 6.65549 26.3464 6.38252 26.3296 6.12434C26.3212 5.98031 26.3028 5.8405 26.2753 5.70522C26.2538 5.60044 26.2271 5.49838 26.1954 5.39873C26.1226 5.17287 26.0239 4.96089 25.8984 4.76432C25.8213 4.64323 25.7337 4.53121 25.6386 4.42099L26.2401 5.04997L26.3315 5.15505Z" fill="white"/>
<path d="M29.7629 13.6449C29.8511 14.5578 29.8789 15.091 29.7321 15.9972C29.5063 17.3974 29.141 18.222 28.3564 19.3619C27.5557 20.5233 26.446 21.6725 25.1063 22.7397C23.7527 23.817 22.1766 24.8017 20.4686 25.6197C18.7592 26.4384 16.9352 27.0821 15.0951 27.4822C14.1415 27.6894 13.2334 27.8198 12.3827 27.8796C11.5383 27.9382 10.7505 27.9273 10.0276 27.8506C9.31258 27.7754 8.66125 27.6368 8.0839 27.4409C7.51078 27.2473 7.01104 26.9976 6.5886 26.6974L5.70144 26.0075L4.96134 25.3398C4.96134 25.3398 4.45722 24.8479 4.16372 24.5058C3.95401 24.2615 3.65039 23.8578 3.65039 23.8578C3.99341 24.2488 4.41283 24.5864 4.94036 24.8651C5.55847 25.1901 6.29615 25.4328 7.14315 25.5826C8.00177 25.7345 8.9697 25.7897 10.0332 25.7387C11.1065 25.6871 12.2754 25.5261 13.519 25.2462C15.5165 24.7975 17.5022 24.0897 19.3663 23.1977C21.2299 22.3063 22.9515 21.241 24.4308 20.08C25.8939 18.9329 27.1061 17.7036 27.9808 16.4683C28.8382 15.258 29.3643 14.0517 29.4865 12.9193C29.4995 12.797 29.5075 12.6769 29.5112 12.5591C29.5151 12.4509 29.5008 12.3339 29.4884 12.2323L29.4853 12.2067C29.4723 12.0871 29.6346 12.7219 29.6346 12.7219C29.6346 12.7219 29.7283 13.2829 29.7629 13.6449Z" fill="white"/>
<path fill-rule="evenodd" clip-rule="evenodd" d="M14.4502 49.9534H13.2984V49.0356H13.2733C13.1451 49.3748 12.6459 50.0913 11.5843 50.0913C10.1008 50.0913 9.49848 48.7717 9.49848 47.0621C9.49848 45.0753 10.2664 43.831 11.6481 43.831C12.6588 43.831 13.1322 44.4468 13.2733 44.7988H13.2984V41.279H14.4502V49.9534ZM11.9682 44.7108C11.0722 44.7108 10.7785 45.7045 10.7785 46.9615C10.7785 47.8666 10.906 49.2116 11.9805 49.2116C12.9152 49.2116 13.2984 47.9419 13.2984 46.9488C13.2984 45.9051 12.9919 44.7108 11.9682 44.7108Z" fill="white"/>
<path d="M0 49.9534H1.15113V47.4141C1.15113 45.5786 2.02072 45.0627 3.05721 45.0627V43.8311C1.85524 43.8311 1.34377 44.6989 1.17692 45.1761H1.15179V43.9697H0V49.9534Z" fill="white"/>
<path fill-rule="evenodd" clip-rule="evenodd" d="M8.32753 49.0095L8.36354 48.9977V49.8901L8.30496 49.9034C7.83618 50.0102 7.47975 50.0914 6.84072 50.0914C4.99839 50.0914 3.82152 49.023 3.82152 46.6723C3.82152 44.1077 5.52411 43.8311 6.30349 43.8311C7.78765 43.8311 8.50398 44.8241 8.50398 46.2324V46.5217H4.97264C4.97264 47.64 5.5492 49.2116 7.21176 49.2116C7.713 49.2116 8.06297 49.0965 8.32753 49.0095ZM6.23973 44.7109C5.2928 44.7109 5.02419 45.5033 5.02419 45.7672H7.35285C7.35285 45.39 7.12225 44.7109 6.23973 44.7109Z" fill="white"/>
<path fill-rule="evenodd" clip-rule="evenodd" d="M19.6961 49.9534H20.8479V41.279H19.6961V44.7988H19.6704C19.5299 44.4468 19.0571 43.831 18.0458 43.831C16.664 43.831 15.8962 45.0753 15.8962 47.0621C15.8962 48.7717 16.4978 50.0913 17.9813 50.0913C19.0429 50.0913 19.5428 49.3748 19.6697 49.0356H19.6954L19.6961 49.9534ZM17.1755 46.9615C17.1755 45.7045 17.4699 44.7108 18.3653 44.7108C19.3888 44.7108 19.6961 45.9051 19.6961 46.9488C19.6961 47.9419 19.3129 49.2116 18.3788 49.2116C17.3037 49.2116 17.1755 47.8666 17.1755 46.9615Z" fill="white"/>
<path fill-rule="evenodd" clip-rule="evenodd" d="M24.9942 50.0914C26.823 50.0914 27.6804 48.8471 27.6804 46.9616C27.6804 45.0508 26.823 43.8311 24.9942 43.8311C23.1512 43.8311 22.2945 45.0508 22.2945 46.9616C22.2945 48.8471 23.1519 50.0914 24.9942 50.0914ZM23.5738 46.9616C23.5738 45.9932 23.7278 44.7109 24.9949 44.7109C26.2349 44.7109 26.4011 45.9932 26.4011 46.9616C26.4011 47.9166 26.2349 49.2116 24.9949 49.2116C23.7271 49.2116 23.5738 47.9166 23.5738 46.9616Z" fill="white"/>
<path d="M32.3642 49.1237C32.1981 49.1743 31.9545 49.2117 31.751 49.2117C30.8549 49.2117 30.7777 48.5832 30.7777 48.0427V44.8495H32.4667V43.9698H30.7777V41.8577L29.6265 42.5615V43.9698H28.5385V44.8495H29.6265V48.6332C29.6265 49.4509 29.9847 50.0914 31.456 50.0914C31.7626 50.0914 32.0698 50.0668 32.3642 50.0034V49.1237Z" fill="white"/>
</svg>
