<svg width="61" height="37" viewBox="0 0 61 37" fill="none" xmlns="http://www.w3.org/2000/svg">
<path d="M0.404297 0.920898H18.0903V36.0023H14.2656C14.327 35.9186 14.3736 35.8333 14.4046 35.7464L14.4294 35.6954V29.1687C14.4294 28.3483 13.0521 27.6469 10.9618 27.2436C10.2616 27.0844 9.70341 26.9965 9.60836 26.982C9.85294 26.9467 14.1605 26.301 14.1605 24.579C14.1605 22.993 9.17666 22.5911 9.17666 22.5911C9.17666 22.5911 14.0933 21.7505 14.0933 20.2852C14.0933 19.1231 8.8583 18.2607 8.8583 18.2607C8.8583 18.2607 13.9695 17.5299 13.9695 15.9402C13.9695 14.5881 9.22975 13.8682 9.22975 13.8682C9.22975 13.8682 13.8316 13.3713 13.8316 11.6464C13.8316 10.3198 8.98208 9.47207 8.98208 9.47207C8.98208 9.47207 13.7892 8.8618 13.7892 7.34529C13.7892 5.37196 7.43632 4.91514 7.43632 4.91514L6.44595 6.18325C6.44595 6.18325 10.7931 6.5925 10.7931 7.29772C10.7931 7.93497 2.13151 8.5753 0.404297 8.69826V0.920898Z" fill="white"/>
<path d="M10.6516 24.6228C10.6516 25.4783 1.98694 26.2419 0.404297 26.3629V23.5905C0.504815 23.5971 0.623628 23.6037 0.758548 23.6103C0.873682 23.6159 1.00045 23.6214 1.13756 23.6271C1.46158 23.6406 1.84307 23.6547 2.26374 23.6701L2.26702 23.6702H2.26792C5.38539 23.7848 10.6516 23.9786 10.6516 24.6228Z" fill="white"/>
<path d="M10.6516 20.424C10.6516 21.2624 2.05843 21.9463 0.404297 22.0658V19.0715C0.800605 19.1071 1.42181 19.1494 2.1678 19.2002L2.16939 19.2003C5.31062 19.4142 10.6516 19.7779 10.6516 20.424Z" fill="white"/>
<path d="M10.7365 16.0279C10.7365 16.8317 2.25957 17.4061 0.404297 17.5233V14.82C1.11618 14.9169 2.42103 14.9956 3.86945 15.0828C6.9734 15.2697 10.7365 15.4964 10.7365 16.0279Z" fill="white"/>
<path d="M10.6516 11.639C10.6516 12.4682 2.55138 13.0598 0.404297 13.2017V10.2415C0.636852 10.2634 0.955807 10.2883 1.3378 10.3165C1.57711 10.3342 1.84119 10.3532 2.12425 10.3734C5.23993 10.5966 10.6516 10.9847 10.6516 11.639Z" fill="white"/>
<path fill-rule="evenodd" clip-rule="evenodd" d="M24.7156 29.7096H24.2734L21.4224 36.0791H21.8964L22.6746 34.3104H26.2931L27.0713 36.0791H27.5666L24.7156 29.7096ZM24.4928 30.2212L26.1022 33.8828H22.8726L24.4928 30.2212Z" fill="white"/>
<path d="M27.892 29.7534H27.3861L29.604 36.1266H29.9754L31.7688 30.6305L33.5621 36.1266H33.93L36.1513 29.7534H35.6774L33.7531 35.3848L31.9634 29.7352H31.6096L29.8162 35.3811L27.892 29.7534Z" fill="white"/>
<path fill-rule="evenodd" clip-rule="evenodd" d="M39.2571 29.7096H38.8184L35.9674 36.0791H36.4414L37.2196 34.3104H40.8346L41.6128 36.0791H42.108L39.2571 29.7096ZM39.0307 30.2212L40.6401 33.8828H37.4106L39.0307 30.2212Z" fill="white"/>
<path fill-rule="evenodd" clip-rule="evenodd" d="M45.5851 29.7534H43.0135V36.0791H43.4663V33.4589H45.4719L47.4209 36.0827H47.9975L45.9777 33.3785C47.0106 33.2324 47.7711 32.6294 47.7711 31.5696V31.5514C47.7727 31.1114 47.6062 30.6885 47.3077 30.3747C46.9398 29.9983 46.335 29.7534 45.5851 29.7534ZM47.3148 31.588C47.3148 32.5015 46.5578 33.035 45.5321 33.035H43.4698V30.1883H45.5568C46.6675 30.1883 47.3148 30.7182 47.3148 31.5696V31.588Z" fill="white"/>
<path fill-rule="evenodd" clip-rule="evenodd" d="M51.1597 29.7534H49.1187V36.0791H51.1597C53.084 36.0791 54.414 34.6978 54.414 32.9145V32.8961C54.414 31.1165 53.084 29.7534 51.1597 29.7534ZM53.9399 32.9364C53.9399 34.442 52.8647 35.6479 51.1597 35.6479V35.6442H49.5751V30.1883H51.1597C52.8647 30.1883 53.9399 31.4162 53.9399 32.9181V32.9364Z" fill="white"/>
<path d="M55.5601 34.8038L55.2629 35.1582C55.9986 35.8379 56.7485 36.1704 57.7319 36.1704C58.9098 36.1704 59.7587 35.4688 59.7587 34.4456V34.4274C59.7587 33.5028 59.1644 32.9803 57.7496 32.6806C56.2958 32.3736 55.9632 31.968 55.9632 31.2992V31.281C55.9632 30.6195 56.5575 30.086 57.4595 30.086C58.1355 30.0736 58.7902 30.33 59.2882 30.8022L59.5747 30.4295C58.9557 29.9179 58.3685 29.6621 57.4772 29.6621C56.3382 29.6621 55.507 30.3856 55.507 31.3248V31.3431C55.507 32.3005 56.1012 32.8158 57.5727 33.1227C58.9628 33.4114 59.3059 33.8025 59.3059 34.4711V34.4895C59.3059 35.213 58.6728 35.7466 57.7531 35.7466C56.8547 35.7466 56.2321 35.4469 55.5601 34.8038Z" fill="white"/>
<path d="M22.9894 10.6193H20.8529V10.1845H25.5786V10.6193H23.4421V16.5137H22.9894V10.6193Z" fill="white"/>
<path d="M26.5655 10.1845H27.0218V13.1152H30.9411V10.1845H31.3973V16.5137H30.9411V13.5464H27.0218V16.5137H26.5655V10.1845Z" fill="white"/>
<path d="M32.9997 10.1845H37.354V10.6193H33.4524V13.1043H36.9613V13.5391H33.4524V16.0789H37.4V16.5137H32.9997V10.1845Z" fill="white"/>
<path d="M27.3918 19.6959L27.3861 19.6785H25.8263L25.2461 21.9332L25.2452 21.9366C24.878 23.3807 24.8073 23.6592 24.5458 25.1052C24.3371 23.5229 24.2557 23.1428 23.4952 19.6785H21.7372L23.5271 26.9761H25.3451L26.0243 24.5168C26.2696 23.7416 26.4704 22.9521 26.6256 22.1525C26.8379 23.1757 26.8591 23.2232 27.2376 24.5643C27.4123 25.1725 27.5747 25.785 27.7405 26.3968C27.7929 26.59 27.8456 26.7831 27.8991 26.9761H29.7171L31.507 19.6749H29.756L29.2962 21.9003C28.9778 23.3839 28.9283 23.6324 28.7161 25.0795C28.5065 23.7279 28.4326 23.4612 28.0868 22.2118L28.037 22.0319C27.8126 21.2533 27.6022 20.4745 27.3918 19.6959Z" fill="white"/>
<path fill-rule="evenodd" clip-rule="evenodd" d="M37.9589 26.048C38.309 25.7117 38.5425 25.3646 38.7794 24.9992L37.2691 24.2062C37.0215 24.7032 36.6466 25.4414 35.55 25.4414C34.4711 25.4414 33.9901 24.5716 34.0007 23.6946H38.8573C38.829 22.9016 38.7759 21.5312 37.8917 20.5482C37.0215 19.5798 35.8507 19.5396 35.4474 19.5396C32.7662 19.5396 31.9598 21.7176 31.9598 23.4132C31.9598 25.7117 33.3782 27.0419 35.3944 27.0419C36.3401 27.058 37.2566 26.7028 37.9589 26.048ZM36.4095 21.4106C36.6378 21.6901 36.7708 22.0394 36.788 22.4046H34.0149L34.0167 22.3962C34.0797 22.1026 34.1482 21.7841 34.4181 21.4764C34.6741 21.1955 35.0274 21.0308 35.4007 21.0185C35.7739 21.0062 36.1367 21.1472 36.4095 21.4106Z" fill="white"/>
<path fill-rule="evenodd" clip-rule="evenodd" d="M42.8473 19.6749H40.1165V26.9725H43.0984C43.9085 26.9725 44.478 26.9396 45.0085 26.7021C45.3492 26.5586 45.6416 26.3149 45.8492 26.001C46.0567 25.6871 46.1704 25.3171 46.1757 24.9371C46.1757 24.5204 46.0378 24.1185 45.7867 23.8408C45.4023 23.3896 44.8423 23.295 44.4126 23.2224L44.3965 23.2196C44.7785 23.1392 45.4577 22.9929 45.7761 22.2475C45.7958 22.2043 45.8416 22.0962 45.8734 21.9257C45.8927 21.822 45.9069 21.6951 45.9069 21.5458C45.9156 21.1631 45.8001 20.7885 45.579 20.4812C45.358 20.174 45.0438 19.952 44.6867 19.8502C44.2586 19.7077 43.5901 19.6749 42.8473 19.6749ZM41.7967 22.5581V21.0415H43.247C43.5865 21.0415 44.1772 21.0708 44.1772 21.7724C44.1772 22.5289 43.5264 22.5471 43.1267 22.5581H41.7967ZM41.7967 25.6496V23.8809H43.3247L43.3374 23.8812C43.7016 23.8923 44.3859 23.913 44.3859 24.78C44.3859 25.6168 43.6183 25.6387 43.0277 25.6496H41.7967Z" fill="white"/>
<path fill-rule="evenodd" clip-rule="evenodd" d="M50.3497 19.6749H47.619V26.9725H50.6008C51.4109 26.9725 51.9804 26.9396 52.5109 26.7021C53.3881 26.3002 53.6782 25.5035 53.6782 24.9371C53.6782 24.5204 53.5367 24.1185 53.2891 23.8408C52.9049 23.3896 52.3447 23.295 51.915 23.2224L51.8989 23.2196C52.281 23.1392 52.9601 22.9929 53.2785 22.2475C53.3103 22.178 53.4094 21.9405 53.4094 21.5458C53.418 21.1631 53.3025 20.7885 53.0814 20.4812C52.8604 20.174 52.5463 19.952 52.1891 19.8502C51.7575 19.7077 51.0889 19.6749 50.3497 19.6749ZM49.2992 22.5581V21.0415H50.7494C51.0889 21.0415 51.6797 21.0708 51.6797 21.7724C51.6797 22.5289 51.0289 22.5471 50.6291 22.5581H49.2992ZM49.2992 25.6496V23.8809H50.8272C51.188 23.8919 51.8884 23.9029 51.8884 24.78C51.8884 25.6168 51.1173 25.6387 50.5301 25.6496H49.2992Z" fill="white"/>
<path d="M55.6696 19.6749H53.6358L56.2887 23.574V26.9725H58.029V23.5192L60.6995 19.6749H58.6905L57.4807 21.63C57.3959 21.768 57.3465 21.851 57.3091 21.9207C57.2654 22.0022 57.2384 22.0657 57.1906 22.178L55.6696 19.6749Z" fill="white"/>
</svg>
