<svg width="73" height="19" viewBox="0 0 73 19" fill="none" xmlns="http://www.w3.org/2000/svg">
<path d="M23.607 7.47654C23.607 6.14321 22.3406 4.74488 20.1395 4.74488C17.6711 4.74488 14.961 6.58071 14.546 10.2449C14.122 13.9449 16.3916 15.589 18.6793 15.589C20.967 15.589 22.1649 14.6849 23.39 13.479C22.3365 12.1374 20.9761 12.7574 20.7154 12.894C20.2838 13.1369 19.7951 13.257 19.3013 13.2415C18.4186 13.2415 17.5177 12.8399 17.5177 11.1682C23.1739 10.6015 23.607 8.80154 23.607 7.47654ZM20.8037 7.69571C20.7674 8.10654 20.6057 8.80988 17.7413 9.20404C18.3435 7.02904 19.4985 6.86571 20.029 6.86571C20.1365 6.86075 20.2438 6.87923 20.3436 6.91988C20.4434 6.96053 20.5334 7.0224 20.6075 7.1013C20.6815 7.1802 20.7379 7.27427 20.7727 7.37712C20.8076 7.47998 20.8201 7.5892 20.8094 7.69738L20.8037 7.69571ZM11.2238 8.05238L9.90871 12.2457L8.98058 4.96488C6.90983 4.96488 5.79608 6.46321 5.21528 8.04321L3.61148 12.2549L3.38626 8.08821C3.26416 6.15154 1.51351 4.97321 0.0986328 4.97321L1.80968 15.5065C3.97943 15.4982 5.15093 14.0082 5.76391 12.4282L7.12021 8.84738C7.13258 8.99321 8.05741 15.5074 8.05741 15.5074C10.2371 15.5074 11.4086 14.1099 12.0364 12.584L15.0889 4.97404C12.9398 4.97404 11.807 6.46321 11.2221 8.05238H11.2238ZM31.6062 4.71904C30.2639 4.71904 29.2385 5.45904 28.3722 6.54571V6.53738L29.1461 0.206543C27.3624 0.206543 25.9121 1.77821 25.6332 4.11654L24.2918 15.4249C25.3189 15.4249 26.4087 15.1232 26.9945 14.3557C27.5175 15.0407 28.3004 15.589 29.4629 15.589C32.4708 15.589 34.5341 12.0449 34.5341 8.71904C34.516 5.68571 33.0656 4.72738 31.6153 4.72738L31.6062 4.71904ZM31.3257 10.1549C31.0122 12.009 29.9925 13.2699 29.0116 13.2699C28.0307 13.2699 27.5975 12.8224 27.5975 12.8224C27.7873 11.1974 27.9044 10.2007 28.2641 9.34154C28.6238 8.48238 29.4802 7.11238 30.372 7.11238C31.2465 7.11238 31.6425 8.29071 31.3265 10.154L31.3257 10.1549ZM42.0359 4.96571H39.9371L39.9453 4.85571C40.0897 3.46738 40.4139 2.73654 41.4831 2.61738C42.2132 2.54404 42.5375 2.16071 42.6183 1.74071L42.8798 0.269876C38.6723 0.242376 37.3408 2.08654 37.0017 4.90154L36.9935 4.96571H36.9481C36.2633 4.96571 35.5076 5.75154 35.3806 6.74738L35.3352 7.11238H36.741L35.5613 16.9957L35.1999 18.7682C35.2453 18.7682 35.2989 18.7765 35.3435 18.7765C37.3152 18.7032 38.5775 17.1232 38.8563 14.8299L39.777 7.11071H40.437C41.0855 7.11071 41.8428 6.45238 41.9748 5.35654L42.0359 4.96571ZM52.9523 4.78238C50.5292 4.78238 48.2415 6.59071 47.5403 9.43238C46.839 12.274 47.9016 15.6349 51.4673 15.6349C55.0329 15.6349 57.0748 12.1349 57.0748 9.22154C57.0781 6.32571 55.1426 4.78154 52.9531 4.78154L52.9523 4.78238ZM53.934 10.0624C53.8086 11.3507 53.2493 13.3057 51.7181 13.3057C50.1869 13.3057 50.3939 11.0224 50.5424 9.93488C50.705 8.77488 51.3443 7.12154 52.7221 7.12154C53.9612 7.12154 54.0776 8.61071 53.9348 10.0632L53.934 10.0624ZM69.048 8.04321L67.733 12.2365C67.6975 11.9074 66.8057 4.95571 66.8057 4.95571C64.7349 4.95571 63.6261 6.45404 63.0453 8.03404L61.4415 12.2457C61.4333 11.944 61.2163 8.07904 61.2163 8.07904C61.0859 6.14238 59.3369 4.96404 57.9163 4.96404L59.6183 15.4974C61.788 15.489 62.9595 13.999 63.5725 12.419L64.9238 8.83821C64.9321 8.98404 65.861 15.4982 65.861 15.4982C68.0407 15.4982 69.2072 14.1007 69.84 12.5749L72.895 4.96488C70.7516 4.96488 69.6164 6.45404 69.0398 8.04321H69.048ZM44.0175 0.268211L42.252 14.7099L41.8907 16.4915C41.9352 16.4915 41.9897 16.4999 42.0342 16.4999C43.9334 16.4724 45.2847 14.7832 45.538 12.654L46.5552 4.36821C46.8638 1.83738 45.3779 0.266543 44.0175 0.266543V0.268211Z" fill="white"/>
</svg>
